# Blender v2.80 (sub 75) OBJ File: ''
# www.blender.org
mtllib grass.mtl
o GrassE_ms1.001_Mesh.001
v 0.068946 0.525957 1.007820
v -0.085233 0.911664 1.189491
v -0.193011 0.914934 1.116606
v -0.126132 0.525930 0.912063
v 0.000114 -0.102561 0.723813
v 0.109674 -0.103590 0.783423
v 0.245244 0.862551 0.884370
v 0.329220 0.903438 0.686526
v 0.484971 1.365087 0.884613
v 0.431226 1.338018 1.009815
v 0.071280 -0.100971 0.688110
v 0.113706 -0.088065 0.557331
v -0.114927 0.741276 0.230634
v 0.124419 0.753153 0.223284
v 0.058890 1.211973 -0.053700
v -0.075624 1.207680 -0.070749
v -0.037869 -0.103947 0.485643
v 0.097302 -0.104730 0.481308
v -0.192747 0.772971 0.655941
v -0.118401 0.780717 0.437103
v -0.351375 1.162329 0.385140
v -0.396966 1.167669 0.533331
v 0.009492 -0.102576 0.645720
v 0.052065 -0.107229 0.534474
v 0.421227 0.466824 0.525498
v 0.388266 0.456414 0.338031
v 0.613875 0.697191 0.290355
v 0.635749 0.717594 0.421482
v 0.189468 -0.085314 0.562008
v 0.180915 -0.089193 0.454395
v -0.394086 0.396816 0.694587
v -0.350970 0.394833 0.839637
v -0.723456 0.733995 0.839877
v -0.112707 -0.092001 0.638214
v -0.083223 -0.093651 0.718428
v -0.291252 1.213932 1.355856
v 0.907933 0.841707 0.257370
v 0.016315 1.464222 -0.349029
v -0.697560 1.365951 0.342936
v 0.726735 1.781340 1.191423
v 0.068946 0.525957 1.007820
v -0.126132 0.525930 0.912063
v -0.193011 0.914934 1.116606
v -0.085233 0.911664 1.189491
v 0.000114 -0.102561 0.723813
v 0.109674 -0.103590 0.783423
v 0.245244 0.862551 0.884370
v 0.431226 1.338018 1.009815
v 0.484971 1.365087 0.884613
v 0.329220 0.903438 0.686526
v 0.071280 -0.100971 0.688110
v 0.113706 -0.088065 0.557331
v -0.114924 0.741276 0.230634
v -0.075624 1.207680 -0.070749
v 0.058890 1.211973 -0.053700
v 0.124419 0.753153 0.223284
v -0.037869 -0.103947 0.485643
v 0.097302 -0.104730 0.481308
v -0.192747 0.772971 0.655941
v -0.396966 1.167669 0.533331
v -0.351375 1.162329 0.385140
v -0.118404 0.780717 0.437103
v 0.009492 -0.102576 0.645720
v 0.052065 -0.107229 0.534474
v 0.421227 0.466824 0.525498
v 0.635749 0.717594 0.421482
v 0.613875 0.697191 0.290355
v 0.388266 0.456414 0.338031
v 0.189468 -0.085314 0.562008
v 0.180915 -0.089193 0.454395
v -0.394086 0.396816 0.694587
v -0.723456 0.733995 0.839877
v -0.350970 0.394833 0.839637
v -0.112707 -0.091998 0.638214
v -0.083223 -0.093651 0.718428
v -0.291252 1.213932 1.355856
v 0.907933 0.841707 0.257370
v 0.016315 1.464222 -0.349029
v -0.697560 1.365951 0.342936
v 0.726735 1.781340 1.191423
v -0.689571 0.761784 0.628125
v -0.912879 1.320432 0.891252
v -1.068984 1.325172 0.785691
v -0.972120 0.761745 0.489432
v -0.789267 -0.148548 0.216777
v -0.630582 -0.150039 0.303114
v -0.434226 1.249296 0.449322
v -0.312597 1.308516 0.162771
v -0.087009 1.977159 0.449676
v -0.164850 1.937952 0.631014
v -0.686193 -0.146244 0.165066
v -0.624741 -0.127554 -0.024354
v -0.955887 1.073646 -0.497532
v -0.609225 1.090848 -0.508179
v -0.704136 1.755396 -0.909357
v -0.898965 1.749174 -0.934050
v -0.844281 -0.150555 -0.128184
v -0.648501 -0.151686 -0.134463
v -1.068600 1.119552 0.118470
v -0.960921 1.130772 -0.198489
v -1.298352 1.683492 -0.273750
v -1.364388 1.691226 -0.059112
v -0.775683 -0.148569 0.103668
v -0.714018 -0.155310 -0.057459
v -0.179337 0.676137 -0.070458
v -0.227073 0.661059 -0.341982
v 0.099693 1.009797 -0.411036
v 0.131370 1.039347 -0.221112
v -0.515007 -0.123567 -0.017577
v -0.527394 -0.129183 -0.173445
v -1.360214 0.574740 0.174444
v -1.297767 0.571866 0.384531
v -1.837266 1.063101 0.384879
v -0.952674 -0.133251 0.092796
v -0.909969 -0.135642 0.208977
v -1.211274 1.758228 1.132212
v 0.525597 1.219107 -0.458808
v -0.765804 2.120745 -1.337106
v -1.799760 1.978410 -0.334878
v 0.263157 2.580051 0.894051
v -0.689571 0.761784 0.628125
v -0.972120 0.761745 0.489432
v -1.068984 1.325172 0.785691
v -0.912879 1.320432 0.891252
v -0.789267 -0.148548 0.216777
v -0.630582 -0.150039 0.303114
v -0.434226 1.249296 0.449322
v -0.164850 1.937952 0.631014
v -0.087009 1.977159 0.449676
v -0.312597 1.308516 0.162771
v -0.686193 -0.146244 0.165066
v -0.624741 -0.127554 -0.024354
v -0.955887 1.073646 -0.497532
v -0.898965 1.749174 -0.934050
v -0.704136 1.755396 -0.909357
v -0.609225 1.090848 -0.508179
v -0.844281 -0.150552 -0.128184
v -0.648501 -0.151686 -0.134463
v -1.068600 1.119552 0.118470
v -1.364388 1.691226 -0.059112
v -1.298352 1.683492 -0.273750
v -0.960921 1.130772 -0.198489
v -0.775683 -0.148566 0.103668
v -0.714018 -0.155307 -0.057459
v -0.179337 0.676137 -0.070458
v 0.131370 1.039347 -0.221112
v 0.099693 1.009797 -0.411033
v -0.227073 0.661059 -0.341982
v -0.515007 -0.123567 -0.017577
v -0.527397 -0.129183 -0.173445
v -1.360214 0.574740 0.174444
v -1.837266 1.063101 0.384879
v -1.297767 0.571866 0.384531
v -0.952674 -0.133251 0.092796
v -0.909969 -0.135642 0.208977
v -1.211274 1.758228 1.132212
v 0.525597 1.219107 -0.458808
v -0.765804 2.120745 -1.337106
v -1.799760 1.978410 -0.334878
v 0.263157 2.580051 0.894051
v 0.964995 0.617370 0.442455
v 0.784023 1.070112 0.655701
v 0.657510 1.073952 0.570150
v 0.736012 0.617337 0.330054
v 0.884202 -0.120387 0.109089
v 1.012804 -0.121596 0.179058
v 1.171935 1.012464 0.297549
v 1.270506 1.060455 0.065322
v 1.453326 1.602342 0.297837
v 1.390243 1.570566 0.444798
v 0.967735 -0.118521 0.067182
v 1.017537 -0.103371 -0.086328
v 0.749169 0.870111 -0.469806
v 1.030113 0.884052 -0.478434
v 0.953193 1.422618 -0.803559
v 0.795300 1.417575 -0.823569
v 0.839617 -0.122013 -0.170475
v 0.998280 -0.122931 -0.175566
v 0.657822 0.907314 0.029418
v 0.745086 0.916407 -0.227454
v 0.471624 1.364343 -0.288447
v 0.418107 1.370613 -0.114498
v 0.895209 -0.120402 0.017424
v 0.945183 -0.125865 -0.113157
v 1.378503 0.547959 -0.123693
v 1.339818 0.535740 -0.343743
v 1.604637 0.818364 -0.399705
v 1.630308 0.842313 -0.245787
v 1.106466 -0.100143 -0.080838
v 1.096429 -0.104694 -0.207156
v 0.421492 0.465783 0.074781
v 0.472098 0.463455 0.245043
v 0.034875 0.861564 0.245325
v 0.751770 -0.107988 0.008613
v 0.786381 -0.109926 0.102768
v 0.542196 1.424913 0.850980
v 1.949802 0.987996 -0.438423
v 0.903216 1.718706 -1.150218
v 0.065271 1.603356 -0.337986
v 1.737112 2.090940 0.657969
v 0.964995 0.617370 0.442455
v 0.736014 0.617337 0.330054
v 0.657510 1.073952 0.570150
v 0.784023 1.070112 0.655701
v 0.884202 -0.120387 0.109089
v 1.012804 -0.121596 0.179058
v 1.171935 1.012464 0.297549
v 1.390243 1.570566 0.444795
v 1.453326 1.602342 0.297837
v 1.270506 1.060455 0.065322
v 0.967735 -0.118521 0.067182
v 1.017537 -0.103371 -0.086328
v 0.749169 0.870111 -0.469806
v 0.795300 1.417575 -0.823569
v 0.953193 1.422618 -0.803556
v 1.030113 0.884052 -0.478434
v 0.839617 -0.122013 -0.170475
v 0.998280 -0.122931 -0.175566
v 0.657822 0.907314 0.029418
v 0.418107 1.370613 -0.114498
v 0.471624 1.364343 -0.288447
v 0.745086 0.916407 -0.227454
v 0.895209 -0.120402 0.017424
v 0.945183 -0.125865 -0.113157
v 1.378503 0.547959 -0.123693
v 1.630308 0.842316 -0.245787
v 1.604637 0.818364 -0.399705
v 1.339818 0.535740 -0.343743
v 1.106466 -0.100140 -0.080838
v 1.096429 -0.104694 -0.207156
v 0.421492 0.465783 0.074781
v 0.034875 0.861564 0.245325
v 0.472098 0.463455 0.245043
v 0.751770 -0.107988 0.008613
v 0.786381 -0.109926 0.102768
v 0.542196 1.424913 0.850980
v 1.949802 0.987996 -0.438423
v 0.903216 1.718706 -1.150218
v 0.065271 1.603356 -0.337986
v 1.737112 2.090940 0.657969
vt 0.448648 0.355005
vt 0.423502 0.585229
vt 0.357491 0.583333
vt 0.338514 0.356909
vt 0.352209 0.021058
vt 0.415392 0.020212
vt 0.647650 0.470980
vt 0.749905 0.478585
vt 0.726103 0.711055
vt 0.661328 0.705566
vt 0.648877 0.011580
vt 0.713769 0.009294
vt 0.488300 0.472500
vt 0.609784 0.473166
vt 0.591450 0.748502
vt 0.522906 0.754868
vt 0.504005 0.026185
vt 0.572415 0.022891
vt 0.070445 0.481333
vt 0.187620 0.484076
vt 0.174564 0.734657
vt 0.095932 0.736539
vt 0.097763 0.028580
vt 0.158088 0.025306
vt 0.804523 0.334855
vt 0.901004 0.336253
vt 0.895358 0.506854
vt 0.827433 0.510057
vt 0.805851 0.035165
vt 0.860838 0.038552
vt 0.235429 0.303478
vt 0.312123 0.303137
vt 0.257358 0.552615
vt 0.249163 0.026328
vt 0.292473 0.024705
vt 0.374863 0.783558
vt 0.883896 0.673910
vt 0.573558 0.946443
vt 0.138622 0.974232
vt 0.673925 0.990930
vt 0.448648 0.355005
vt 0.338514 0.356909
vt 0.357491 0.583333
vt 0.423502 0.585229
vt 0.352209 0.021058
vt 0.415392 0.020212
vt 0.647650 0.470980
vt 0.661328 0.705566
vt 0.726103 0.711055
vt 0.749905 0.478585
vt 0.648877 0.011580
vt 0.713769 0.009294
vt 0.488300 0.472500
vt 0.522906 0.754868
vt 0.591450 0.748502
vt 0.609784 0.473166
vt 0.504005 0.026185
vt 0.572415 0.022891
vt 0.070445 0.481333
vt 0.095932 0.736539
vt 0.174564 0.734657
vt 0.187620 0.484076
vt 0.097763 0.028580
vt 0.158088 0.025306
vt 0.804523 0.334855
vt 0.827433 0.510057
vt 0.895358 0.506854
vt 0.901004 0.336253
vt 0.805851 0.035165
vt 0.860838 0.038552
vt 0.235429 0.303478
vt 0.257358 0.552615
vt 0.312123 0.303137
vt 0.249163 0.026328
vt 0.292473 0.024705
vt 0.374863 0.783558
vt 0.883896 0.673910
vt 0.573558 0.946443
vt 0.138622 0.974232
vt 0.673925 0.990930
vt 0.448648 0.355005
vt 0.423502 0.585229
vt 0.357491 0.583333
vt 0.338514 0.356909
vt 0.352209 0.021058
vt 0.415392 0.020212
vt 0.647650 0.470980
vt 0.749905 0.478585
vt 0.726103 0.711055
vt 0.661328 0.705566
vt 0.648877 0.011580
vt 0.713769 0.009294
vt 0.488300 0.472500
vt 0.609784 0.473166
vt 0.591450 0.748502
vt 0.522906 0.754868
vt 0.504005 0.026185
vt 0.572415 0.022891
vt 0.070445 0.481333
vt 0.187620 0.484076
vt 0.174564 0.734657
vt 0.095932 0.736539
vt 0.097763 0.028580
vt 0.158088 0.025306
vt 0.804523 0.334855
vt 0.901004 0.336253
vt 0.895358 0.506854
vt 0.827433 0.510057
vt 0.805851 0.035165
vt 0.860838 0.038552
vt 0.235429 0.303478
vt 0.312123 0.303137
vt 0.257358 0.552615
vt 0.249163 0.026328
vt 0.292473 0.024705
vt 0.374863 0.783558
vt 0.883896 0.673910
vt 0.573558 0.946443
vt 0.138622 0.974232
vt 0.673925 0.990930
vt 0.448648 0.355005
vt 0.338514 0.356909
vt 0.357491 0.583333
vt 0.423502 0.585229
vt 0.352209 0.021058
vt 0.415392 0.020212
vt 0.647650 0.470980
vt 0.661328 0.705566
vt 0.726103 0.711055
vt 0.749905 0.478585
vt 0.648877 0.011580
vt 0.713769 0.009294
vt 0.488300 0.472500
vt 0.522906 0.754868
vt 0.591450 0.748502
vt 0.609784 0.473166
vt 0.504005 0.026185
vt 0.572415 0.022891
vt 0.070445 0.481333
vt 0.095932 0.736539
vt 0.174564 0.734657
vt 0.187620 0.484076
vt 0.097763 0.028580
vt 0.158088 0.025306
vt 0.804523 0.334855
vt 0.827433 0.510057
vt 0.895358 0.506854
vt 0.901004 0.336253
vt 0.805851 0.035165
vt 0.860838 0.038552
vt 0.235429 0.303478
vt 0.257358 0.552615
vt 0.312123 0.303137
vt 0.249163 0.026328
vt 0.292473 0.024705
vt 0.374863 0.783558
vt 0.883896 0.673910
vt 0.573558 0.946443
vt 0.138622 0.974232
vt 0.673925 0.990930
vt 0.448648 0.355005
vt 0.423502 0.585229
vt 0.357491 0.583333
vt 0.338514 0.356909
vt 0.352209 0.021058
vt 0.415392 0.020212
vt 0.647650 0.470980
vt 0.749905 0.478585
vt 0.726103 0.711055
vt 0.661328 0.705566
vt 0.648877 0.011580
vt 0.713769 0.009294
vt 0.488300 0.472500
vt 0.609784 0.473166
vt 0.591450 0.748502
vt 0.522906 0.754868
vt 0.504005 0.026185
vt 0.572415 0.022891
vt 0.070445 0.481333
vt 0.187620 0.484076
vt 0.174564 0.734657
vt 0.095932 0.736539
vt 0.097763 0.028580
vt 0.158088 0.025306
vt 0.804523 0.334855
vt 0.901004 0.336253
vt 0.895358 0.506854
vt 0.827433 0.510057
vt 0.805851 0.035165
vt 0.860838 0.038552
vt 0.235429 0.303478
vt 0.312123 0.303137
vt 0.257358 0.552615
vt 0.249163 0.026328
vt 0.292473 0.024705
vt 0.374863 0.783558
vt 0.883896 0.673910
vt 0.573558 0.946443
vt 0.138622 0.974232
vt 0.673925 0.990930
vt 0.448648 0.355005
vt 0.338514 0.356909
vt 0.357491 0.583333
vt 0.423502 0.585229
vt 0.352209 0.021058
vt 0.415392 0.020212
vt 0.647650 0.470980
vt 0.661328 0.705566
vt 0.726103 0.711055
vt 0.749905 0.478585
vt 0.648877 0.011580
vt 0.713769 0.009294
vt 0.488300 0.472500
vt 0.522906 0.754868
vt 0.591450 0.748502
vt 0.609784 0.473166
vt 0.504005 0.026185
vt 0.572415 0.022891
vt 0.070445 0.481333
vt 0.095932 0.736539
vt 0.174564 0.734657
vt 0.187620 0.484076
vt 0.097763 0.028580
vt 0.158088 0.025306
vt 0.804523 0.334855
vt 0.827433 0.510057
vt 0.895358 0.506854
vt 0.901004 0.336253
vt 0.805851 0.035165
vt 0.860838 0.038552
vt 0.235429 0.303478
vt 0.257358 0.552615
vt 0.312123 0.303137
vt 0.249163 0.026328
vt 0.292473 0.024705
vt 0.374863 0.783558
vt 0.883896 0.673910
vt 0.573558 0.946443
vt 0.138622 0.974232
vt 0.673925 0.990930
vn -0.4146 -0.4129 0.8110
vn -0.4684 -0.5800 0.6666
vn -0.4535 -0.5759 0.6802
vn -0.4020 -0.4092 0.8191
vn -0.4466 -0.3274 0.8327
vn -0.4543 -0.3250 0.8294
vn 0.8940 -0.3203 0.3133
vn 0.8931 -0.3277 0.3083
vn 0.8287 -0.5021 0.2472
vn 0.8276 -0.5045 0.2462
vn 0.9281 -0.2379 0.2863
vn 0.9304 -0.2385 0.2783
vn -0.0018 0.4057 0.9140
vn 0.0087 0.4074 0.9132
vn -0.0997 0.6386 0.7631
vn -0.1162 0.6464 0.7541
vn 0.0296 0.2874 0.9573
vn 0.0324 0.2869 0.9574
vn 0.8791 0.3664 0.3049
vn 0.8728 0.3764 0.3108
vn 0.6919 0.6943 0.1982
vn 0.7015 0.6866 0.1911
vn 0.9167 0.2126 0.3384
vn 0.9154 0.2132 0.3414
vn 0.8346 -0.5403 -0.1077
vn 0.8268 -0.5517 -0.1100
vn 0.6159 -0.7878 0.0069
vn 0.6324 -0.7745 0.0150
vn 0.9255 -0.3711 -0.0761
vn 0.9287 -0.3659 -0.0606
vn -0.7536 -0.6210 0.2155
vn -0.7565 -0.6161 0.2193
vn -0.6614 -0.7265 0.1867
vn -0.8118 -0.5128 0.2792
vn -0.8084 -0.5142 0.2866
vn -0.4416 -0.6445 0.6241
vn 0.4460 -0.8927 0.0645
vn -0.1069 0.7484 0.6546
vn 0.4924 0.8620 0.1204
vn 0.7744 -0.5993 0.2029
vn 0.4146 0.4129 -0.8110
vn 0.4020 0.4092 -0.8191
vn 0.4535 0.5759 -0.6802
vn 0.4684 0.5800 -0.6666
vn 0.4466 0.3274 -0.8327
vn 0.4543 0.3250 -0.8294
vn -0.8940 0.3203 -0.3133
vn -0.8276 0.5045 -0.2462
vn -0.8287 0.5021 -0.2472
vn -0.8931 0.3277 -0.3083
vn -0.9281 0.2379 -0.2863
vn -0.9304 0.2385 -0.2783
vn 0.0018 -0.4057 -0.9140
vn 0.1162 -0.6464 -0.7541
vn 0.0997 -0.6386 -0.7631
vn -0.0087 -0.4074 -0.9132
vn -0.0296 -0.2874 -0.9573
vn -0.0324 -0.2869 -0.9574
vn -0.8791 -0.3664 -0.3049
vn -0.7015 -0.6866 -0.1911
vn -0.6919 -0.6943 -0.1982
vn -0.8728 -0.3764 -0.3108
vn -0.9167 -0.2126 -0.3384
vn -0.9154 -0.2132 -0.3414
vn -0.8346 0.5403 0.1077
vn -0.6324 0.7745 -0.0150
vn -0.6159 0.7878 -0.0069
vn -0.8268 0.5517 0.1100
vn -0.9255 0.3711 0.0761
vn -0.9287 0.3659 0.0606
vn 0.7536 0.6210 -0.2155
vn 0.6614 0.7265 -0.1867
vn 0.7565 0.6161 -0.2192
vn 0.8118 0.5128 -0.2791
vn 0.8084 0.5142 -0.2865
vn 0.4416 0.6445 -0.6241
vn -0.4460 0.8927 -0.0645
vn 0.1069 -0.7484 -0.6546
vn -0.4924 -0.8620 -0.1204
vn -0.7744 0.5993 -0.2029
vn -0.4684 -0.5799 0.6666
vn 0.8268 -0.5517 -0.1099
vn -0.7566 -0.6161 0.2192
vn 0.4923 0.8620 0.1204
vn 0.7744 -0.5993 0.2028
vn 0.4684 0.5799 -0.6666
vn -0.8268 0.5517 0.1099
vn 0.7566 0.6161 -0.2192
vn 0.8118 0.5128 -0.2792
vn 0.8084 0.5142 -0.2866
vn -0.4923 -0.8620 -0.1204
vn -0.7744 0.5993 -0.2028
vn -0.4683 -0.5799 0.6666
vn 0.8287 -0.5021 0.2471
vn 0.8276 -0.5045 0.2461
vn -0.6614 -0.7265 0.1866
vn 0.4683 0.5799 -0.6666
vn -0.8287 0.5021 -0.2471
vn -0.6324 0.7745 -0.0151
vn 0.6614 0.7265 -0.1866
usemtl GrassD_mt1
s 1
f 1/1/1 2/2/2 3/3/3
f 3/3/3 4/4/4 1/1/1
f 5/5/5 6/6/6 1/1/1
f 1/1/1 4/4/4 5/5/5
f 7/7/7 8/8/8 9/9/9
f 9/9/9 10/10/10 7/7/7
f 11/11/11 12/12/12 8/8/8
f 8/8/8 7/7/7 11/11/11
f 13/13/13 14/14/14 15/15/15
f 15/15/15 16/16/16 13/13/13
f 17/17/17 18/18/18 14/14/14
f 14/14/14 13/13/13 17/17/17
f 19/19/19 20/20/20 21/21/21
f 21/21/21 22/22/22 19/19/19
f 23/23/23 24/24/24 20/20/20
f 20/20/20 19/19/19 23/23/23
f 25/25/25 26/26/26 27/27/27
f 27/27/27 28/28/28 25/25/25
f 29/29/29 30/30/30 26/26/26
f 26/26/26 25/25/25 29/29/29
f 31/31/31 32/32/32 33/33/33
f 34/34/34 35/35/35 32/32/32
f 32/32/32 31/31/31 34/34/34
f 2/2/2 36/36/36 3/3/3
f 27/27/27 37/37/37 28/28/28
f 15/15/15 38/38/38 16/16/16
f 21/21/21 39/39/39 22/22/22
f 9/9/9 40/40/40 10/10/10
f 41/41/41 42/42/42 43/43/43
f 43/43/43 44/44/44 41/41/41
f 45/45/45 42/42/42 41/41/41
f 41/41/41 46/46/46 45/45/45
f 47/47/47 48/48/48 49/49/49
f 49/49/49 50/50/50 47/47/47
f 51/51/51 47/47/47 50/50/50
f 50/50/50 52/52/52 51/51/51
f 53/53/53 54/54/54 55/55/55
f 55/55/55 56/56/56 53/53/53
f 57/57/57 53/53/53 56/56/56
f 56/56/56 58/58/58 57/57/57
f 59/59/59 60/60/60 61/61/61
f 61/61/61 62/62/62 59/59/59
f 63/63/63 59/59/59 62/62/62
f 62/62/62 64/64/64 63/63/63
f 65/65/65 66/66/66 67/67/67
f 67/67/67 68/68/68 65/65/65
f 69/69/69 65/65/65 68/68/68
f 68/68/68 70/70/70 69/69/69
f 71/71/71 72/72/72 73/73/73
f 74/74/74 71/71/71 73/73/73
f 73/73/73 75/75/75 74/74/74
f 44/44/44 43/43/43 76/76/76
f 67/67/67 66/66/66 77/77/77
f 55/55/55 54/54/54 78/78/78
f 61/61/61 60/60/60 79/79/79
f 49/49/49 48/48/48 80/80/80
f 81/81/1 82/82/81 83/83/3
f 83/83/3 84/84/4 81/81/1
f 85/85/5 86/86/6 81/81/1
f 81/81/1 84/84/4 85/85/5
f 87/87/7 88/88/8 89/89/9
f 89/89/9 90/90/10 87/87/7
f 91/91/11 92/92/12 88/88/8
f 88/88/8 87/87/7 91/91/11
f 93/93/13 94/94/14 95/95/15
f 95/95/15 96/96/16 93/93/13
f 97/97/17 98/98/18 94/94/14
f 94/94/14 93/93/13 97/97/17
f 99/99/19 100/100/20 101/101/21
f 101/101/21 102/102/22 99/99/19
f 103/103/23 104/104/24 100/100/20
f 100/100/20 99/99/19 103/103/23
f 105/105/25 106/106/82 107/107/27
f 107/107/27 108/108/28 105/105/25
f 109/109/29 110/110/30 106/106/82
f 106/106/82 105/105/25 109/109/29
f 111/111/31 112/112/83 113/113/33
f 114/114/34 115/115/35 112/112/83
f 112/112/83 111/111/31 114/114/34
f 82/82/81 116/116/36 83/83/3
f 107/107/27 117/117/37 108/108/28
f 95/95/15 118/118/38 96/96/16
f 101/101/21 119/119/84 102/102/22
f 89/89/9 120/120/85 90/90/10
f 121/121/41 122/122/42 123/123/43
f 123/123/43 124/124/86 121/121/41
f 125/125/45 122/122/42 121/121/41
f 121/121/41 126/126/46 125/125/45
f 127/127/47 128/128/48 129/129/49
f 129/129/49 130/130/50 127/127/47
f 131/131/51 127/127/47 130/130/50
f 130/130/50 132/132/52 131/131/51
f 133/133/53 134/134/54 135/135/55
f 135/135/55 136/136/56 133/133/53
f 137/137/57 133/133/53 136/136/56
f 136/136/56 138/138/58 137/137/57
f 139/139/59 140/140/60 141/141/61
f 141/141/61 142/142/62 139/139/59
f 143/143/63 139/139/59 142/142/62
f 142/142/62 144/144/64 143/143/63
f 145/145/65 146/146/66 147/147/67
f 147/147/67 148/148/87 145/145/65
f 149/149/69 145/145/65 148/148/87
f 148/148/87 150/150/70 149/149/69
f 151/151/71 152/152/72 153/153/88
f 154/154/89 151/151/71 153/153/88
f 153/153/88 155/155/90 154/154/89
f 124/124/86 123/123/43 156/156/76
f 147/147/67 146/146/66 157/157/77
f 135/135/55 134/134/54 158/158/78
f 141/141/61 140/140/60 159/159/91
f 129/129/49 128/128/48 160/160/92
f 161/161/1 162/162/93 163/163/3
f 163/163/3 164/164/4 161/161/1
f 165/165/5 166/166/6 161/161/1
f 161/161/1 164/164/4 165/165/5
f 167/167/7 168/168/8 169/169/94
f 169/169/94 170/170/95 167/167/7
f 171/171/11 172/172/12 168/168/8
f 168/168/8 167/167/7 171/171/11
f 173/173/13 174/174/14 175/175/15
f 175/175/15 176/176/16 173/173/13
f 177/177/17 178/178/18 174/174/14
f 174/174/14 173/173/13 177/177/17
f 179/179/19 180/180/20 181/181/21
f 181/181/21 182/182/22 179/179/19
f 183/183/23 184/184/24 180/180/20
f 180/180/20 179/179/19 183/183/23
f 185/185/25 186/186/82 187/187/27
f 187/187/27 188/188/28 185/185/25
f 189/189/29 190/190/30 186/186/82
f 186/186/82 185/185/25 189/189/29
f 191/191/31 192/192/83 193/193/96
f 194/194/34 195/195/35 192/192/83
f 192/192/83 191/191/31 194/194/34
f 162/162/93 196/196/36 163/163/3
f 187/187/27 197/197/37 188/188/28
f 175/175/15 198/198/38 176/176/16
f 181/181/21 199/199/39 182/182/22
f 169/169/94 200/200/85 170/170/95
f 201/201/41 202/202/42 203/203/43
f 203/203/43 204/204/97 201/201/41
f 205/205/45 202/202/42 201/201/41
f 201/201/41 206/206/46 205/205/45
f 207/207/47 208/208/48 209/209/98
f 209/209/98 210/210/50 207/207/47
f 211/211/51 207/207/47 210/210/50
f 210/210/50 212/212/52 211/211/51
f 213/213/53 214/214/54 215/215/55
f 215/215/55 216/216/56 213/213/53
f 217/217/57 213/213/53 216/216/56
f 216/216/56 218/218/58 217/217/57
f 219/219/59 220/220/60 221/221/61
f 221/221/61 222/222/62 219/219/59
f 223/223/63 219/219/59 222/222/62
f 222/222/62 224/224/64 223/223/63
f 225/225/65 226/226/99 227/227/67
f 227/227/67 228/228/87 225/225/65
f 229/229/69 225/225/65 228/228/87
f 228/228/87 230/230/70 229/229/69
f 231/231/71 232/232/100 233/233/88
f 234/234/89 231/231/71 233/233/88
f 233/233/88 235/235/90 234/234/89
f 204/204/97 203/203/43 236/236/76
f 227/227/67 226/226/99 237/237/77
f 215/215/55 214/214/54 238/238/78
f 221/221/61 220/220/60 239/239/79
f 209/209/98 208/208/48 240/240/92
